g Base
v -0.6 0.03489864 0
v -0.6 0.03489864 -1.152598
v 0.6 0.03489864 -1.152598
v 0.6 0.03489864 0
v -0.6 0.03489864 1.152598
v 0.6 0.03489864 1.152598
v 1.680012 0.03489864 -1.152598
v 1.680012 0.03489864 -2.086222
v 1.572022 0.03489864 -2.189947
v 0.6 0.03489864 -2.189947
v 1.680012 0.03489864 0
v 1.680012 0.03489864 1.152598
v 0.6 0.03489864 2.189947
v 1.680012 0.03489864 2.086222
v 1.572022 0.03489864 2.189947
v -0.6 0.03489864 -2.189947
v -0.6 0.03489864 2.189947
v -1.680012 0.03489864 -2.086222
v -1.572022 0.03489864 -2.189947
v -0.6 0.008540887 -2.27144
v 0.6 0.008540887 -2.27144
v -0.608968 -0.05555227 -2.33965
v 0.608968 -0.05555227 -2.33965
v 1.764856 0.008540887 0
v 1.764856 0.008540887 -1.152598
v 1.826904 -0.05555227 -1.169825
v 1.826904 -0.05555227 0
v 1.764856 0.008540887 1.152598
v 1.826904 -0.05555227 1.169825
v 1.826904 -0.05555227 -2.234375
v 1.764856 0.008540887 -2.167715
v 1.656866 0.008540887 -2.27144
v 1.717299 -0.05555227 -2.33965
v 1.764856 0.008540887 2.167715
v 1.826904 -0.05555227 2.234375
v 1.717299 -0.05555227 2.33965
v 1.656866 0.008540887 2.27144
v 0.6 0.008540887 2.27144
v -0.6 0.008540887 2.27144
v 0.608968 -0.05555227 2.33965
v -0.608968 -0.05555227 2.33965
v -1.656866 0.008540887 2.27144
v -1.717299 -0.05555227 2.33965
v -1.572022 0.03489864 2.189947
v -1.680012 0.03489864 2.086222
v -1.680012 0.03489864 1.152598
v -1.680012 0.03489864 0
v -1.680012 0.03489864 -1.152598
v -1.764856 0.008540887 0
v -1.764856 0.008540887 -1.152598
v -1.764856 0.008540887 1.152598
v -1.764856 0.008540887 2.167715
v -1.764856 0.008540887 -1.152598
v -1.764856 0.008540887 0
v -1.826904 -0.05555227 0
v -1.826904 -0.05555227 -1.169825
v -1.826904 -0.05555227 1.169825
v -1.764856 0.008540887 1.152598
v -1.764856 0.008540887 -2.167715
v -1.826904 -0.05555227 -2.234375
v -1.717299 -0.05555227 -2.33965
v -1.656866 0.008540887 -2.27144
v -1.680012 0.03489864 -2.086222
v -1.572022 0.03489864 -2.189947
v -1.826904 -0.05555227 2.234375
v -1.764856 0.008540887 2.167715
v -1.656866 0.008540887 2.27144
v -1.717299 -0.05555227 2.33965
v -2.057699 -0.3738646 -1.158408
v -2.057699 -0.3738646 0
v -2.057699 -0.3738646 1.158408
v -2.057699 -0.3738646 -2.212568
v -2.057699 -0.3738646 2.212568
v 1.656866 0.008540887 -2.27144
v 0.6 0.008540887 -2.27144
v 0.608968 -0.05555227 -2.33965
v 1.717299 -0.05555227 -2.33965
v 1.729834 -0.3738657 -2.428082
v 0.613413 -0.3738657 -2.428082
v -0.608968 -0.05555227 -2.33965
v -0.613413 -0.3738657 -2.428082
v -1.717299 -0.05555227 -2.33965
v -0.6 0.008540887 -2.27144
v -1.656866 0.008540887 -2.27144
v -1.729834 -0.3738657 -2.428082
v 1.826904 -0.05555227 -2.234375
v 2.057699 -0.3738646 -2.212568
v -2.057699 -0.3738646 -2.212568
v -1.656866 0.008540887 -2.27144
v 2.057699 -0.3738646 -1.158408
v 2.057699 -0.3738646 0
v 2.057699 -0.3738646 1.158408
v 2.057699 -0.3738646 -2.212568
v 2.057699 -0.3738646 2.212568
v 0.608968 -0.05555227 2.33965
v 0.613413 -0.3738657 2.450047
v -0.613413 -0.3738657 2.450047
v -0.608968 -0.05555227 2.33965
v 1.717299 -0.05555227 2.33965
v 1.729834 -0.3738657 2.450047
v -1.729834 -0.3738657 2.450047
v -1.717299 -0.05555227 2.33965
v 2.057699 -0.3738646 2.212568
v -1.826904 -0.05555227 2.234375
v -2.057699 -0.3738646 2.212568
vt 0.08243454 0.7942181
vt 0.08243454 0.8483812
vt 0.1347537 0.8483812
vt 0.1347537 0.7942181
vt 0.08243454 0.7400548
vt 0.1347537 0.7400548
vt 0.1779922 0.8483812
vt 0.1779919 0.8989394
vt 0.1732839 0.9040119
vt 0.1347537 0.9040119
vt 0.1779922 0.7942181
vt 0.1779922 0.7400548
vt 0.1347537 0.6920288
vt 0.1779919 0.6971235
vt 0.1732839 0.6920288
vt 0.08243454 0.9040119
vt 0.08243454 0.6920288
vt 0.03341126 0.8989394
vt 0.03842312 0.9040119
vt 0.08243454 0.9078414
vt 0.1347537 0.9078416
vt 0.08243456 0.9116711
vt 0.1347536 0.9116713
vt 0.1816912 0.7942179
vt 0.1816912 0.8483812
vt 0.1853902 0.8483811
vt 0.1853903 0.7942181
vt 0.1816912 0.7400548
vt 0.1853907 0.7400548
vt 0.1853938 0.9064186
vt 0.1816912 0.9027835
vt 0.1769829 0.9078416
vt 0.1821136 0.911669
vt 0.1816912 0.6932778
vt 0.1853897 0.687858
vt 0.1804875 0.6843689
vt 0.1769829 0.6881992
vt 0.1347536 0.6881993
vt 0.08243454 0.6881993
vt 0.1347536 0.6843696
vt 0.08243454 0.6843696
vt 0.03470179 0.6881994
vt 0.03021851 0.6843707
vt 0.03842312 0.6920288
vt 0.03341129 0.6971235
vt 0.03341129 0.7400548
vt 0.03341129 0.7942181
vt 0.03341129 0.8483812
vt 0.02971205 0.7942179
vt 0.02971205 0.8483812
vt 0.02971205 0.7400548
vt 0.02971205 0.693278
vt 0.02971205 0.8483812
vt 0.02971205 0.7942179
vt 0.02709642 0.7942179
vt 0.02709615 0.8483811
vt 0.0270966 0.7400548
vt 0.02971205 0.7400548
vt 0.02971202 0.9027833
vt 0.02709642 0.9081931
vt 0.03217506 0.9116715
vt 0.03470173 0.9078414
vt 0.03341126 0.8989394
vt 0.03842312 0.9040119
vt 0.02709422 0.689643
vt 0.02971205 0.693278
vt 0.03470179 0.6881994
vt 0.03021851 0.6843707
vt 0.004544288 0.8483801
vt 0.004544258 0.7942169
vt 0.004544288 0.7400538
vt 0.004544377 0.9081935
vt 0.004544288 0.6896453
vt 0.1769829 0.9078416
vt 0.1347537 0.9078416
vt 0.1347536 0.9116713
vt 0.1821136 0.911669
vt 0.1821172 0.9380224
vt 0.1347541 0.9380224
vt 0.08243456 0.9116711
vt 0.08243251 0.9380224
vt 0.03217506 0.9116715
vt 0.08243454 0.9078414
vt 0.03470173 0.9078414
vt 0.03217471 0.9380224
vt 0.1853938 0.9064186
vt 0.2050694 0.9064165
vt 0.004544377 0.9081935
vt 0.03470173 0.9078414
vt 0.2050694 0.8483819
vt 0.2050694 0.7942189
vt 0.2050694 0.7400557
vt 0.2050694 0.9064165
vt 0.2050694 0.6878563
vt 0.1347536 0.6843696
vt 0.1347536 0.6545004
vt 0.08243454 0.6545004
vt 0.08243454 0.6843696
vt 0.1804875 0.6843689
vt 0.180487 0.6545004
vt 0.03021669 0.6545004
vt 0.03021851 0.6843707
vt 0.2050694 0.6878563
vt 0.02709422 0.689643
vt 0.004544288 0.6896453
vn 0 1 0
vn 0 1 0
vn 0 1 0
vn 0 1 0
vn 0 1 0
vn 0 1 0
vn 0.02206607 0.9997565 0
vn 0.02259127 0.9997434 -0.001622651
vn 0.001458285 0.9997247 -0.02341696
vn 0 0.999736 -0.0229731
vn 0.02262168 0.9997441 0
vn 0.02206606 0.9997565 0
vn 0 0.999736 0.0229731
vn 0.02259124 0.9997434 0.001622649
vn 0.001458283 0.9997247 0.02341696
vn 0 0.999736 -0.0229731
vn 0 0.999736 0.0229731
vn -0.02259124 0.9997434 -0.001622649
vn -0.001458283 0.9997247 -0.02341696
vn 0 0.8537207 -0.5207313
vn 0 0.8537207 -0.5207313
vn 0 0.3771157 -0.9261661
vn 0 0.3771157 -0.9261661
vn 0.5251421 0.8510146 0
vn 0.5287753 0.8487619 0
vn 0.7941485 0.6077238 0
vn 0.7939743 0.6079514 0
vn 0.5287755 0.8487618 0
vn 0.7941486 0.6077236 0
vn 0.792308 0.5838703 -0.1770415
vn 0.5762519 0.8158706 -0.04784323
vn 0.04570225 0.8269957 -0.5603476
vn 0.1185068 0.3598388 -0.9254577
vn 0.5762525 0.8158702 0.04784321
vn 0.7913058 0.5858427 0.1749953
vn 0.1253366 0.4058213 0.9053175
vn 0.04570223 0.8269957 0.5603476
vn 0 0.8537207 0.5207313
vn 0 0.8537207 0.5207313
vn 0 0.4215186 0.9068198
vn 0 0.4215186 0.9068198
vn -0.04570225 0.8269957 0.5603476
vn -0.1253366 0.4058213 0.9053175
vn -0.001458285 0.9997247 0.02341696
vn -0.02259127 0.9997434 0.001622651
vn -0.02206607 0.9997565 0
vn -0.02262168 0.9997441 0
vn -0.02206606 0.9997565 0
vn -0.5251421 0.8510146 0
vn -0.5287755 0.8487618 0
vn -0.5287753 0.8487619 0
vn -0.5762519 0.8158706 0.04784323
vn -0.5287755 0.8487618 0
vn -0.5251421 0.8510146 0
vn -0.7939743 0.6079514 0
vn -0.7941486 0.6077236 0
vn -0.7941485 0.6077238 0
vn -0.5287753 0.8487619 0
vn -0.5762525 0.8158702 -0.04784321
vn -0.7923081 0.58387 -0.1770415
vn -0.1185068 0.3598388 -0.9254577
vn -0.04570223 0.8269957 -0.5603476
vn -0.02259124 0.9997434 -0.001622649
vn -0.001458283 0.9997247 -0.02341696
vn -0.7913058 0.585843 0.1749953
vn -0.5762519 0.8158706 0.04784323
vn -0.04570225 0.8269957 0.5603476
vn -0.1253366 0.4058213 0.9053175
vn -0.8095878 0.5869988 0
vn -0.8095877 0.5869988 0
vn -0.8095877 0.5869989 0
vn -0.8124865 0.5749512 -0.09641983
vn -0.8116949 0.5759636 0.09704305
vn 0.04570225 0.8269957 -0.5603476
vn 0 0.8537207 -0.5207313
vn 0 0.3771157 -0.9261661
vn 0.1185068 0.3598388 -0.9254577
vn 0.1099824 0.2809347 -0.9534042
vn 0 0.2676765 -0.9635089
vn 0 0.3771157 -0.9261661
vn 0 0.2676765 -0.9635089
vn -0.1185068 0.3598388 -0.9254577
vn 0 0.8537207 -0.5207313
vn -0.04570223 0.8269957 -0.5603476
vn -0.1099824 0.2809347 -0.9534042
vn 0.792308 0.5838703 -0.1770415
vn 0.8124864 0.5749513 -0.09641982
vn -0.8124865 0.5749512 -0.09641983
vn -0.04570223 0.8269957 -0.5603476
vn 0.8095877 0.5869989 0
vn 0.8095877 0.5869988 0
vn 0.8095878 0.5869988 0
vn 0.8124864 0.5749513 -0.09641982
vn 0.8116949 0.5759635 0.09704305
vn 0 0.4215186 0.9068198
vn 0 0.3276698 0.9447923
vn 0 0.3276698 0.9447923
vn 0 0.4215186 0.9068198
vn 0.1253366 0.4058213 0.9053175
vn 0.1119994 0.3372968 0.9347122
vn -0.1119994 0.3372968 0.9347122
vn -0.1253366 0.4058213 0.9053175
vn 0.8116949 0.5759635 0.09704305
vn -0.7913058 0.585843 0.1749953
vn -0.8116949 0.5759636 0.09704305
g Base_0
f 3/3/3 2/2/2 1/1/1
f 4/4/4 3/3/3 1/1/1
f 4/4/4 1/1/1 5/5/5
f 6/6/6 4/4/4 5/5/5
f 7/7/7 3/3/3 4/4/4
f 3/3/3 7/7/7 8/8/8
f 3/3/3 8/8/8 9/9/9
f 9/9/9 10/10/10 3/3/3
f 3/3/3 10/10/10 2/2/2
f 11/11/11 7/7/7 4/4/4
f 11/11/11 4/4/4 6/6/6
f 12/12/12 11/11/11 6/6/6
f 12/12/12 6/6/6 13/13/13
f 13/13/13 14/14/14 12/12/12
f 13/13/13 15/15/15 14/14/14
f 10/10/10 16/16/16 2/2/2
f 6/6/6 5/5/5 17/17/17
f 13/13/13 6/6/6 17/17/17
f 18/18/18 2/2/2 16/16/16
f 16/16/16 19/19/19 18/18/18
f 20/20/20 16/16/16 10/10/10
f 21/21/21 20/20/20 10/10/10
f 21/21/21 10/10/10 9/9/9
f 22/22/22 20/20/20 21/21/21
f 23/23/23 22/22/22 21/21/21
f 11/11/11 12/12/12 24/24/24
f 11/11/11 24/24/24 25/25/25
f 25/25/25 24/24/24 26/26/26
f 24/24/24 27/27/27 26/26/26
f 24/24/24 28/28/28 27/27/27
f 28/28/28 29/29/29 27/27/27
f 12/12/12 28/28/28 24/24/24
f 26/26/26 30/30/30 25/25/25
f 30/30/30 31/31/31 25/25/25
f 31/31/31 30/30/30 32/32/32
f 31/31/31 32/32/32 9/9/9
f 32/32/32 21/21/21 9/9/9
f 8/8/8 31/31/31 9/9/9
f 30/30/30 33/33/33 32/32/32
f 31/31/31 8/8/8 7/7/7
f 25/25/25 31/31/31 7/7/7
f 7/7/7 11/11/11 25/25/25
f 28/28/28 34/34/34 29/29/29
f 34/34/34 35/35/35 29/29/29
f 36/36/36 35/35/35 34/34/34
f 37/37/37 36/36/36 34/34/34
f 37/37/37 34/34/34 14/14/14
f 14/14/14 34/34/34 28/28/28
f 12/12/12 14/14/14 28/28/28
f 15/15/15 37/37/37 14/14/14
f 37/37/37 15/15/15 13/13/13
f 38/38/38 37/37/37 13/13/13
f 36/36/36 37/37/37 38/38/38
f 13/13/13 17/17/17 38/38/38
f 17/17/17 39/39/39 38/38/38
f 38/38/38 39/39/39 40/40/40
f 40/40/40 36/36/36 38/38/38
f 39/39/39 41/41/41 40/40/40
f 39/39/39 42/42/42 41/41/41
f 42/42/42 43/43/43 41/41/41
f 44/44/44 42/42/42 39/39/39
f 17/17/17 44/44/44 39/39/39
f 45/45/45 44/44/44 17/17/17
f 45/45/45 17/17/17 5/5/5
f 5/5/5 46/46/46 45/45/45
f 5/5/5 1/1/1 46/46/46
f 1/1/1 47/47/47 46/46/46
f 1/1/1 2/2/2 47/47/47
f 2/2/2 48/48/48 47/47/47
f 18/18/18 48/48/48 2/2/2
f 49/49/49 47/47/47 48/48/48
f 50/50/50 49/49/49 48/48/48
f 48/48/48 18/18/18 50/50/50
f 51/51/51 46/46/46 47/47/47
f 49/49/49 51/51/51 47/47/47
f 52/52/52 42/42/42 44/44/44
f 45/45/45 52/52/52 44/44/44
f 52/52/52 45/45/45 46/46/46
f 51/51/51 52/52/52 46/46/46
f 55/55/55 54/54/54 53/53/53
f 56/56/56 55/55/55 53/53/53
f 55/55/55 57/57/57 54/54/54
f 57/57/57 58/58/58 54/54/54
f 53/53/53 59/59/59 56/56/56
f 59/59/59 60/60/60 56/56/56
f 61/61/61 60/60/60 59/59/59
f 62/62/62 61/61/61 59/59/59
f 62/62/62 59/59/59 63/63/63
f 63/63/63 59/59/59 53/53/53
f 64/64/64 62/62/62 63/63/63
f 57/57/57 65/65/65 58/58/58
f 65/65/65 66/66/66 58/58/58
f 66/66/66 65/65/65 67/67/67
f 65/65/65 68/68/68 67/67/67
f 56/56/56 69/69/69 55/55/55
f 69/69/69 70/70/70 55/55/55
f 55/55/55 70/70/70 57/57/57
f 70/70/70 71/71/71 57/57/57
f 57/57/57 71/71/71 65/65/65
f 72/72/72 69/69/69 56/56/56
f 72/72/72 60/60/60 61/61/61
f 60/60/60 72/72/72 56/56/56
f 71/71/71 73/73/73 65/65/65
f 76/76/76 75/75/75 74/74/74
f 77/77/77 76/76/76 74/74/74
f 77/77/77 78/78/78 76/76/76
f 78/78/78 79/79/79 76/76/76
f 76/76/76 79/79/79 80/80/80
f 79/79/79 81/81/81 80/80/80
f 80/80/80 81/81/81 82/82/82
f 80/80/80 82/82/82 83/83/83
f 82/82/82 84/84/84 83/83/83
f 81/81/81 85/85/85 82/82/82
f 78/78/78 77/77/77 86/86/86
f 87/87/87 78/78/78 86/86/86
f 85/85/85 88/88/88 82/82/82
f 89/89/89 19/19/19 16/16/16
f 20/20/20 89/89/89 16/16/16
f 91/91/91 90/90/90 26/26/26
f 27/27/27 91/91/91 26/26/26
f 92/92/92 91/91/91 27/27/27
f 29/29/29 92/92/92 27/27/27
f 26/26/26 90/90/90 30/30/30
f 90/90/90 93/93/93 30/30/30
f 94/94/94 92/92/92 29/29/29
f 35/35/35 94/94/94 29/29/29
f 94/94/94 35/35/35 36/36/36
f 97/97/97 96/96/96 95/95/95
f 98/98/98 97/97/97 95/95/95
f 95/95/95 96/96/96 99/99/99
f 96/96/96 100/100/100 99/99/99
f 101/101/101 97/97/97 98/98/98
f 102/102/102 101/101/101 98/98/98
f 100/100/100 103/103/103 99/99/99
f 101/101/101 102/102/102 104/104/104
f 105/105/105 101/101/101 104/104/104
