g Base
v -0.6 0.03489864 0
v -0.6 0.03489864 -1.152598
v 0.6 0.03489864 -1.152598
v 0.6 0.03489864 0
v -0.6 0.03489864 1.152598
v 0.6 0.03489864 1.152598
v 1.680012 0.03489864 -1.152598
v 1.680012 0.03489864 -2.086222
v 1.572022 0.03489864 -2.189947
v 0.6 0.03489864 -2.189947
v 1.680012 0.03489864 0
v 1.680012 0.03489864 1.152598
v 0.6 0.03489864 2.189947
v 1.680012 0.03489864 2.086222
v 1.572022 0.03489864 2.189947
v -0.6 0.03489864 -2.189947
v -0.6 0.03489864 2.189947
v -1.680012 0.03489864 -2.086222
v -1.572022 0.03489864 -2.189947
v -0.6 0.008540887 -2.27144
v 0.6 0.008540887 -2.27144
v -0.608968 -0.05555227 -2.33965
v 0.608968 -0.05555227 -2.33965
v 1.764856 0.008540887 0
v 1.764856 0.008540887 -1.152598
v 1.826904 -0.05555227 -1.169825
v 1.826904 -0.05555227 0
v 1.764856 0.008540887 1.152598
v 1.826904 -0.05555227 1.169825
v -1.656866 0.008540887 -2.27144
v -1.764856 0.008540887 -2.167715
v -1.717299 -0.05555227 -2.33965
v -1.826904 -0.05555227 -2.234375
v 1.826904 -0.05555227 -2.234375
v 1.764856 0.008540887 -2.167715
v 1.656866 0.008540887 -2.27144
v 1.717299 -0.05555227 -2.33965
v 1.826904 -0.05555227 2.234375
v 1.764856 0.008540887 2.167715
v 1.717299 -0.05555227 2.33965
v 1.656866 0.008540887 2.27144
v 0.6 0.008540887 2.27144
v -0.6 0.008540887 2.27144
v 0.608968 -0.05555227 2.33965
v -0.608968 -0.05555227 2.33965
v -1.656866 0.008540887 2.27144
v -1.717299 -0.05555227 2.33965
v -1.572022 0.03489864 2.189947
v -1.680012 0.03489864 2.086222
v -1.680012 0.03489864 1.152598
v -1.680012 0.03489864 0
v -1.680012 0.03489864 -1.152598
v -1.764856 0.008540887 0
v -1.764856 0.008540887 -1.152598
v -1.764856 0.008540887 1.152598
v -1.764856 0.008540887 2.167715
v -1.764856 0.008540887 -1.152598
v -1.764856 0.008540887 0
v -1.826904 -0.05555227 0
v -1.826904 -0.05555227 -1.169825
v -1.826904 -0.05555227 1.169825
v -1.764856 0.008540887 1.152598
v -1.764856 0.008540887 -2.167715
v -1.826904 -0.05555227 -2.234375
v -1.826904 -0.05555227 2.234375
v -1.764856 0.008540887 2.167715
v -1.656866 0.008540887 2.27144
v -1.717299 -0.05555227 2.33965
v -2.057699 -0.3738646 -1.158408
v -2.057699 -0.3738646 0
v -2.057699 -0.3738646 1.158408
v -2.057699 -0.3738646 -2.212568
v -2.057699 -0.3738646 2.212568
v 1.656866 0.008540887 -2.27144
v 1.717299 -0.05555227 -2.33965
v 1.826904 -0.05555227 -2.234375
v 1.764856 0.008540887 -2.167715
v 1.729834 -0.3738657 -2.428082
v 0.608968 -0.05555227 -2.33965
v 0.613413 -0.3738657 -2.428082
v -0.608968 -0.05555227 -2.33965
v -0.613413 -0.3738657 -2.428082
v -1.717299 -0.05555227 -2.33965
v -0.6 0.008540887 -2.27144
v -1.729834 -0.3738657 -2.428082
v 2.057699 -0.3738646 -2.212568
v -2.057699 -0.3738646 -2.212568
v -1.826904 -0.05555227 -2.234375
v 2.057699 -0.3738646 -1.158408
v 2.057699 -0.3738646 0
v 2.057699 -0.3738646 1.158408
v 2.057699 -0.3738646 -2.212568
v 2.057699 -0.3738646 2.212568
v 0.608968 -0.05555227 2.33965
v 0.613413 -0.3738657 2.450047
v -0.613413 -0.3738657 2.450047
v -0.608968 -0.05555227 2.33965
v 1.717299 -0.05555227 2.33965
v 1.729834 -0.3738657 2.450047
v -1.729834 -0.3738657 2.450047
v -1.717299 -0.05555227 2.33965
v 2.057699 -0.3738646 2.212568
v -1.826904 -0.05555227 2.234375
v -2.057699 -0.3738646 2.212568
vt 0.2875594 0.4982947
vt 0.2875594 0.5524578
vt 0.3398786 0.5524578
vt 0.3398786 0.4982947
vt 0.2875594 0.4441314
vt 0.3398786 0.4441314
vt 0.3831171 0.5524578
vt 0.3831168 0.603016
vt 0.3784088 0.6080885
vt 0.3398786 0.6080885
vt 0.3831171 0.4982947
vt 0.3831171 0.4441314
vt 0.3398786 0.3961054
vt 0.3831168 0.4012001
vt 0.3784088 0.3961054
vt 0.2875594 0.6080885
vt 0.2875594 0.3961054
vt 0.2385362 0.603016
vt 0.2435481 0.6080885
vt 0.2875594 0.611918
vt 0.3398786 0.6119182
vt 0.2875595 0.6157477
vt 0.3398785 0.6157479
vt 0.3868161 0.4982945
vt 0.3868161 0.5524578
vt 0.3905151 0.5524577
vt 0.3905152 0.4982947
vt 0.3868161 0.4441314
vt 0.3905156 0.4441314
vt 0.2398267 0.611918
vt 0.234837 0.6068599
vt 0.2373 0.615748
vt 0.2322214 0.6122696
vt 0.3905187 0.6104952
vt 0.3868161 0.60686
vt 0.3821079 0.6119182
vt 0.3872385 0.6157455
vt 0.3905146 0.3919346
vt 0.3868161 0.3973544
vt 0.3856124 0.3884455
vt 0.3821079 0.3922758
vt 0.3398785 0.3922759
vt 0.2875594 0.3922759
vt 0.3398785 0.3884462
vt 0.2875594 0.3884462
vt 0.2398267 0.392276
vt 0.2353434 0.3884473
vt 0.2435481 0.3961054
vt 0.2385362 0.4012001
vt 0.2385362 0.4441314
vt 0.2385362 0.4982947
vt 0.2385362 0.5524578
vt 0.234837 0.4982945
vt 0.234837 0.5524578
vt 0.234837 0.4441314
vt 0.234837 0.3973545
vt 0.234837 0.5524578
vt 0.234837 0.4982945
vt 0.2322214 0.4982945
vt 0.2322211 0.5524577
vt 0.2322215 0.4441314
vt 0.234837 0.4441314
vt 0.234837 0.6068599
vt 0.2322214 0.6122696
vt 0.2322191 0.3937196
vt 0.234837 0.3973545
vt 0.2398267 0.392276
vt 0.2353434 0.3884473
vt 0.2096692 0.5524567
vt 0.2096692 0.4982935
vt 0.2096692 0.4441304
vt 0.2096693 0.6122701
vt 0.2096692 0.3937219
vt 0.3821079 0.6119182
vt 0.3872385 0.6157455
vt 0.3905187 0.6104952
vt 0.3868161 0.60686
vt 0.3872421 0.642099
vt 0.3398785 0.6157479
vt 0.339879 0.642099
vt 0.2875595 0.6157477
vt 0.2875574 0.642099
vt 0.2373 0.615748
vt 0.2875594 0.611918
vt 0.2372996 0.642099
vt 0.4101943 0.6104931
vt 0.2096693 0.6122701
vt 0.2322214 0.6122696
vt 0.4101943 0.5524585
vt 0.4101943 0.4982955
vt 0.4101943 0.4441323
vt 0.4101943 0.6104931
vt 0.4101943 0.3919329
vt 0.3398785 0.3884462
vt 0.3398785 0.358577
vt 0.2875594 0.358577
vt 0.2875594 0.3884462
vt 0.3856124 0.3884455
vt 0.3856119 0.358577
vt 0.2353416 0.358577
vt 0.2353434 0.3884473
vt 0.4101943 0.3919329
vt 0.2322191 0.3937196
vt 0.2096692 0.3937219
vn 0 1 0
vn 0 1 0
vn 0 1 0
vn 0 1 0
vn 0 1 0
vn 0 1 0
vn 0.02206607 0.9997565 0
vn 0.02259127 0.9997434 -0.001622651
vn 0.001458285 0.9997247 -0.02341696
vn 0 0.999736 -0.0229731
vn 0.02262168 0.9997441 0
vn 0.02206606 0.9997565 0
vn 0 0.999736 0.0229731
vn 0.02259124 0.9997434 0.001622649
vn 0.001458283 0.9997247 0.02341696
vn 0 0.999736 -0.0229731
vn 0 0.999736 0.0229731
vn -0.02259124 0.9997434 -0.001622649
vn -0.001458283 0.9997247 -0.02341696
vn 0 0.8537207 -0.5207313
vn 0 0.8537207 -0.5207313
vn 0 0.3771157 -0.9261661
vn 0 0.3771157 -0.9261661
vn 0.5251421 0.8510146 0
vn 0.5287753 0.8487619 0
vn 0.7941485 0.6077238 0
vn 0.7939743 0.6079514 0
vn 0.5287755 0.8487618 0
vn 0.7941486 0.6077236 0
vn -0.04570223 0.8269957 -0.5603476
vn -0.5762525 0.8158702 -0.04784321
vn -0.1185068 0.3598388 -0.9254577
vn -0.7923081 0.58387 -0.1770415
vn 0.792308 0.5838703 -0.1770415
vn 0.5762519 0.8158706 -0.04784323
vn 0.04570225 0.8269957 -0.5603476
vn 0.1185068 0.3598388 -0.9254577
vn 0.7913058 0.5858427 0.1749953
vn 0.5762525 0.8158702 0.04784321
vn 0.1253366 0.4058213 0.9053175
vn 0.04570223 0.8269957 0.5603476
vn 0 0.8537207 0.5207313
vn 0 0.8537207 0.5207313
vn 0 0.4215186 0.9068198
vn 0 0.4215186 0.9068198
vn -0.04570225 0.8269957 0.5603476
vn -0.1253366 0.4058213 0.9053175
vn -0.001458285 0.9997247 0.02341696
vn -0.02259127 0.9997434 0.001622651
vn -0.02206607 0.9997565 0
vn -0.02262168 0.9997441 0
vn -0.02206606 0.9997565 0
vn -0.5251421 0.8510146 0
vn -0.5287755 0.8487618 0
vn -0.5287753 0.8487619 0
vn -0.5762519 0.8158706 0.04784323
vn -0.5287755 0.8487618 0
vn -0.5251421 0.8510146 0
vn -0.7939743 0.6079514 0
vn -0.7941486 0.6077236 0
vn -0.7941485 0.6077238 0
vn -0.5287753 0.8487619 0
vn -0.5762525 0.8158702 -0.04784321
vn -0.7923081 0.58387 -0.1770415
vn -0.7913058 0.585843 0.1749953
vn -0.5762519 0.8158706 0.04784323
vn -0.04570225 0.8269957 0.5603476
vn -0.1253366 0.4058213 0.9053175
vn -0.8095878 0.5869988 0
vn -0.8095877 0.5869988 0
vn -0.8095877 0.5869989 0
vn -0.8124865 0.5749512 -0.09641983
vn -0.8116949 0.5759636 0.09704305
vn 0.04570225 0.8269957 -0.5603476
vn 0.1185068 0.3598388 -0.9254577
vn 0.792308 0.5838703 -0.1770415
vn 0.5762519 0.8158706 -0.04784323
vn 0.1099824 0.2809347 -0.9534042
vn 0 0.3771157 -0.9261661
vn 0 0.2676765 -0.9635089
vn 0 0.3771157 -0.9261661
vn 0 0.2676765 -0.9635089
vn -0.1185068 0.3598388 -0.9254577
vn 0 0.8537207 -0.5207313
vn -0.1099824 0.2809347 -0.9534042
vn 0.8124864 0.5749513 -0.09641982
vn -0.8124865 0.5749512 -0.09641983
vn -0.7923081 0.58387 -0.1770415
vn 0.8095877 0.5869989 0
vn 0.8095877 0.5869988 0
vn 0.8095878 0.5869988 0
vn 0.8124864 0.5749513 -0.09641982
vn 0.8116949 0.5759635 0.09704305
vn 0 0.4215186 0.9068198
vn 0 0.3276698 0.9447923
vn 0 0.3276698 0.9447923
vn 0 0.4215186 0.9068198
vn 0.1253366 0.4058213 0.9053175
vn 0.1119994 0.3372968 0.9347122
vn -0.1119994 0.3372968 0.9347122
vn -0.1253366 0.4058213 0.9053175
vn 0.8116949 0.5759635 0.09704305
vn -0.7913058 0.585843 0.1749953
vn -0.8116949 0.5759636 0.09704305
g Base_0
f 3/3/3 2/2/2 1/1/1
f 4/4/4 3/3/3 1/1/1
f 4/4/4 1/1/1 5/5/5
f 6/6/6 4/4/4 5/5/5
f 7/7/7 3/3/3 4/4/4
f 3/3/3 7/7/7 8/8/8
f 3/3/3 8/8/8 9/9/9
f 9/9/9 10/10/10 3/3/3
f 3/3/3 10/10/10 2/2/2
f 11/11/11 7/7/7 4/4/4
f 11/11/11 4/4/4 6/6/6
f 12/12/12 11/11/11 6/6/6
f 12/12/12 6/6/6 13/13/13
f 13/13/13 14/14/14 12/12/12
f 13/13/13 15/15/15 14/14/14
f 10/10/10 16/16/16 2/2/2
f 6/6/6 5/5/5 17/17/17
f 13/13/13 6/6/6 17/17/17
f 18/18/18 2/2/2 16/16/16
f 16/16/16 19/19/19 18/18/18
f 20/20/20 16/16/16 10/10/10
f 21/21/21 20/20/20 10/10/10
f 21/21/21 10/10/10 9/9/9
f 22/22/22 20/20/20 21/21/21
f 23/23/23 22/22/22 21/21/21
f 11/11/11 12/12/12 24/24/24
f 11/11/11 24/24/24 25/25/25
f 25/25/25 24/24/24 26/26/26
f 24/24/24 27/27/27 26/26/26
f 24/24/24 28/28/28 27/27/27
f 28/28/28 29/29/29 27/27/27
f 12/12/12 28/28/28 24/24/24
f 19/19/19 30/30/30 18/18/18
f 30/30/30 19/19/19 16/16/16
f 20/20/20 30/30/30 16/16/16
f 30/30/30 31/31/31 18/18/18
f 30/30/30 32/32/32 31/31/31
f 32/32/32 30/30/30 20/20/20
f 32/32/32 33/33/33 31/31/31
f 26/26/26 34/34/34 25/25/25
f 34/34/34 35/35/35 25/25/25
f 25/25/25 35/35/35 7/7/7
f 7/7/7 11/11/11 25/25/25
f 35/35/35 8/8/8 7/7/7
f 8/8/8 35/35/35 9/9/9
f 35/35/35 36/36/36 9/9/9
f 36/36/36 21/21/21 9/9/9
f 23/23/23 21/21/21 36/36/36
f 37/37/37 23/23/23 36/36/36
f 39/39/39 38/38/38 29/29/29
f 40/40/40 38/38/38 39/39/39
f 41/41/41 40/40/40 39/39/39
f 41/41/41 39/39/39 14/14/14
f 15/15/15 41/41/41 14/14/14
f 41/41/41 15/15/15 13/13/13
f 42/42/42 41/41/41 13/13/13
f 40/40/40 41/41/41 42/42/42
f 13/13/13 17/17/17 42/42/42
f 17/17/17 43/43/43 42/42/42
f 42/42/42 43/43/43 44/44/44
f 44/44/44 40/40/40 42/42/42
f 43/43/43 45/45/45 44/44/44
f 14/14/14 39/39/39 28/28/28
f 28/28/28 39/39/39 29/29/29
f 12/12/12 14/14/14 28/28/28
f 43/43/43 46/46/46 45/45/45
f 46/46/46 47/47/47 45/45/45
f 48/48/48 46/46/46 43/43/43
f 17/17/17 48/48/48 43/43/43
f 49/49/49 48/48/48 17/17/17
f 49/49/49 17/17/17 5/5/5
f 5/5/5 50/50/50 49/49/49
f 5/5/5 1/1/1 50/50/50
f 1/1/1 51/51/51 50/50/50
f 1/1/1 2/2/2 51/51/51
f 2/2/2 52/52/52 51/51/51
f 18/18/18 52/52/52 2/2/2
f 53/53/53 51/51/51 52/52/52
f 54/54/54 53/53/53 52/52/52
f 52/52/52 18/18/18 54/54/54
f 55/55/55 50/50/50 51/51/51
f 53/53/53 55/55/55 51/51/51
f 56/56/56 46/46/46 48/48/48
f 49/49/49 56/56/56 48/48/48
f 56/56/56 49/49/49 50/50/50
f 55/55/55 56/56/56 50/50/50
f 18/18/18 31/31/31 54/54/54
f 59/59/59 58/58/58 57/57/57
f 60/60/60 59/59/59 57/57/57
f 59/59/59 61/61/61 58/58/58
f 61/61/61 62/62/62 58/58/58
f 57/57/57 63/63/63 60/60/60
f 63/63/63 64/64/64 60/60/60
f 61/61/61 65/65/65 62/62/62
f 65/65/65 66/66/66 62/62/62
f 66/66/66 65/65/65 67/67/67
f 65/65/65 68/68/68 67/67/67
f 60/60/60 69/69/69 59/59/59
f 69/69/69 70/70/70 59/59/59
f 59/59/59 70/70/70 61/61/61
f 70/70/70 71/71/71 61/61/61
f 61/61/61 71/71/71 65/65/65
f 72/72/72 69/69/69 60/60/60
f 64/64/64 72/72/72 60/60/60
f 71/71/71 73/73/73 65/65/65
f 76/76/76 75/75/75 74/74/74
f 77/77/77 76/76/76 74/74/74
f 78/78/78 75/75/75 76/76/76
f 75/75/75 78/78/78 79/79/79
f 78/78/78 80/80/80 79/79/79
f 79/79/79 80/80/80 81/81/81
f 80/80/80 82/82/82 81/81/81
f 81/81/81 82/82/82 83/83/83
f 81/81/81 83/83/83 84/84/84
f 82/82/82 85/85/85 83/83/83
f 86/86/86 78/78/78 76/76/76
f 85/85/85 87/87/87 83/83/83
f 87/87/87 88/88/88 83/83/83
f 90/90/90 89/89/89 26/26/26
f 27/27/27 90/90/90 26/26/26
f 91/91/91 90/90/90 27/27/27
f 29/29/29 91/91/91 27/27/27
f 26/26/26 89/89/89 34/34/34
f 89/89/89 92/92/92 34/34/34
f 93/93/93 91/91/91 29/29/29
f 38/38/38 93/93/93 29/29/29
f 93/93/93 38/38/38 40/40/40
f 96/96/96 95/95/95 94/94/94
f 97/97/97 96/96/96 94/94/94
f 94/94/94 95/95/95 98/98/98
f 95/95/95 99/99/99 98/98/98
f 100/100/100 96/96/96 97/97/97
f 101/101/101 100/100/100 97/97/97
f 99/99/99 102/102/102 98/98/98
f 100/100/100 101/101/101 103/103/103
f 104/104/104 100/100/100 103/103/103
