g m_city_wall_window_02_glass
v -0.9804299 0.4694381 0.1683895
v -0.9804299 1.792463 0.1683895
v 0.973901 1.792463 0.1683895
v 0.973901 0.4694381 0.1683895
v -0.9804299 1.792463 0.1037734
v -0.9804299 0.4694381 0.1037734
v 0.973901 0.4694381 0.1037734
v 0.973901 1.792463 0.1037734
v 0.973901 1.792463 0.1037734
v 0.973901 1.792463 0.1683895
v -0.9804299 1.792463 0.1683895
v -0.9804299 1.792463 0.1037734
vt 0.5297852 0.621582
vt 0.5297852 0.7319336
vt 0.715332 0.7319336
vt 0.715332 0.621582
vt 0.5297852 0.7319336
vt 0.5297852 0.621582
vt 0.715332 0.621582
vt 0.715332 0.7319336
vt 0.5302734 0.7319336
vt 0.5302734 0.7319336
vt 0.7158203 0.7319336
vt 0.7158203 0.7319336
vn 0 0 1
vn 0 0 1
vn 0 0 1
vn 0 0 1
vn 0 0 -1
vn 0 0 -1
vn 0 0 -1
vn 0 0 -1
vn 0 1 0
vn 0 1 0
vn 0 1 0
vn 0 1 0
g m_city_wall_window_02_glass_0
f 3/3/3 2/2/2 1/1/1
f 4/4/4 3/3/3 1/1/1
f 7/7/7 6/6/6 5/5/5
f 8/8/8 7/7/7 5/5/5
f 11/11/11 10/10/10 9/9/9
f 12/12/12 11/11/11 9/9/9
