g Fish_Plate_Cooked
v 0.20845641 0.21519801 0.33761877
v 0.20998351 0.14135498 0.35034418
v 0.07485534 0.14258693 0.41683558
v 0.075433955 0.21820508 0.39530563
v -0.07216675 0.15234403 0.38566124
v -0.067691036 0.22636972 0.37219417
v -0.043176267 0.09399143 0.33820388
v 0.065720215 0.07700232 0.36426395
v 0.16826293 0.08410341 0.33206734
v 0.07582519 0.23285641 0.36535904
v -0.05347046 0.24005742 0.34357786
v 0.052769165 0.23112787 0.17689459
v -0.11734009 0.22469032 0.20147628
v 0.030543212 0.23627548 0.0036070673
v 0.18324524 0.20743908 -0.015914008
v 0.13724425 0.23815377 -0.1891705
v 0.009968261 0.25270537 -0.16968958
v 0.070527345 0.27859977 -0.3288957
v -0.014069824 0.28256646 -0.3576177
v -0.12109253 0.25555873 -0.15853235
v -0.08704529 0.28815192 -0.31222683
v -0.12943909 0.22509685 0.02287045
v 0.21775451 0.20924057 0.15998027
v 0.19552796 0.2293651 0.31276655
v 0.07260254 0.2704454 -0.35925332
v -0.02078247 0.27602154 -0.39010578
v 0.06805847 0.22695915 -0.38261122
v -0.026046753 0.23486696 -0.42192817
v 0.04675232 0.1911478 -0.36614296
v -0.020762328 0.19095306 -0.3796257
v -0.10642578 0.23746924 -0.3638241
v -0.079713136 0.19766933 -0.33225253
v -0.102083735 0.2808974 -0.3404458
v 0.14532837 0.22926222 -0.20744067
v 0.14201964 0.17261079 -0.22252685
v 0.06805847 0.22695915 -0.38261122
v 0.19216919 0.12726235 -0.024926063
v 0.1967871 0.19345467 -0.019636745
v 0.14438903 0.067702636 -0.024590861
v 0.0983142 0.1380035 -0.24105008
v -0.004022827 0.12973751 -0.22734049
v 0.017415771 0.065075204 -0.0095916595
v -0.10064392 0.16156194 -0.22126739
v -0.10742065 0.08294042 0.0070828446
v -0.079713136 0.19766933 -0.33225253
v -0.020762328 0.19095306 -0.3796257
v 0.04675232 0.1911478 -0.36614296
v 0.043513793 0.04805706 0.20882048
v -0.09370788 0.076384924 0.2332967
v 0.065720215 0.07700232 0.36426395
v 0.16826293 0.08410341 0.33206734
v 0.18488647 0.05807255 0.19454315
v -0.043176267 0.09399143 0.33820388
v 0.23193847 0.116388224 0.17528902
v 0.23406066 0.19450302 0.17141859
v 0.20998351 0.14135498 0.35034418
v -0.10742065 0.08294042 0.0070828446
v -0.10064392 0.16156194 -0.22126739
v -0.13939513 0.19554216 -0.18860562
v -0.15059204 0.14666438 0.018115321
v -0.13831115 0.24771422 -0.17357832
v -0.1499469 0.21241045 0.023886565
v -0.10642578 0.23746924 -0.3638241
v -0.079713136 0.19766933 -0.33225253
v -0.1376062 0.21052136 0.217984
v -0.14144164 0.13444442 0.22214119
v -0.07216675 0.15234403 0.38566124
v -0.09370788 0.076384924 0.2332967
v -0.043176267 0.09399143 0.33820388
vt 0.4842142 0.8002381
vt 0.47319013 0.87982136
vt 0.608881 0.897158
vt 0.6141247 0.8329032
vt 0.7570946 0.8908586
vt 0.74914 0.8073769
vt 0.73008806 0.98096544
vt 0.60357285 0.9766428
vt 0.49626034 0.9511047
vt 0.61204475 0.8036826
vt 0.72790635 0.77732706
vt 0.61200345 0.6365677
vt 0.7645269 0.63755906
vt 0.6051428 0.48385233
vt 0.46619856 0.49539435
vt 0.47365904 0.34251642
vt 0.5893485 0.32962143
vt 0.4975377 0.19315913
vt 0.57021767 0.15368092
vt 0.7112483 0.3139066
vt 0.6467267 0.17413506
vt 0.75458133 0.47370237
vt 0.46905556 0.63913816
vt 0.5004492 0.773148
vt 0.48267972 0.16334367
vt 0.56923693 0.12513882
vt 0.47331837 0.105814636
vt 0.5673492 0.08719385
vt 0.4800849 0.04909205
vt 0.5598808 0.034081873
vt 0.6502361 0.08561456
vt 0.6394587 0.02612516
vt 0.65761405 0.1417397
vt 0.45601577 0.32759622
vt 0.40593243 0.31978318
vt 0.43424803 0.1448549
vt 0.38956833 0.49481523
vt 0.44535375 0.49554047
vt 0.32549614 0.4907497
vt 0.3602085 0.2946726
vt 0.26684043 0.2663514
vt 0.21292673 0.4774233
vt 0.17189263 0.2197488
vt 0.086839214 0.4622625
vt 0.25114256 0.11442065
vt 0.33445492 0.1069839
vt 0.3891268 0.15562883
vt 0.20830475 0.6815158
vt 0.0705751 0.6977052
vt 0.23024629 0.83448464
vt 0.3358453 0.79963565
vt 0.3283875 0.6723697
vt 0.117927775 0.8079718
vt 0.38906506 0.65744436
vt 0.45021555 0.65123516
vt 0.40860325 0.81572336
vt 0.9188958 0.44498488
vt 0.81316674 0.22657645
vt 0.77520114 0.27320552
vt 0.8408521 0.4626989
vt 0.7289318 0.29534337
vt 0.77785075 0.47191525
vt 0.69685245 0.10922617
vt 0.7544353 0.12052646
vt 0.78890634 0.64952487
vt 0.8576721 0.6559786
vt 0.82696676 0.8271058
vt 0.92882717 0.6797338
vt 0.9068661 0.8006985
vn 0.78804344 0.30440873 0.53509146
vn 0.80142725 -0.20362906 0.56236064
vn 0.10089758 -0.18454747 0.9776308
vn 0.12536636 0.4221364 0.89782196
vn -0.6255146 -0.17759266 0.7597317
vn -0.59663653 0.39816236 0.6967723
vn -0.36393794 -0.8289627 0.4247
vn 0.0001561942 -0.8895683 0.45680213
vn 0.40038347 -0.8401001 0.36595747
vn 0.0509753 0.9977564 0.043401014
vn -0.07253421 0.9969765 0.027871354
vn 0.04702861 0.99857366 -0.025276676
vn -0.11836501 0.99294126 0.007569119
vn 0.06184063 0.9964641 0.056878086
vn 0.23492493 0.97187984 0.016117938
vn 0.22534174 0.968926 0.10199728
vn 0.07573094 0.9865497 0.14486083
vn 0.17555158 0.9772016 0.11940979
vn 0.07564493 0.9926933 0.094009355
vn -0.06814287 0.9870553 0.14518411
vn -0.020718219 0.9905715 0.1354212
vn -0.110188335 0.99115103 0.07401351
vn 0.21141244 0.97632194 -0.04582872
vn 0.17476216 0.9846085 -0.0020624793
vn 0.73799163 0.43790388 -0.5134281
vn -0.03488438 0.7139164 -0.69936144
vn 0.72136384 -0.11140832 -0.6835367
vn -0.15459067 -0.05907262 -0.986211
vn 0.27658415 -0.8120199 -0.51393086
vn -0.14476556 -0.8553139 -0.49747473
vn -0.85762864 -0.11235061 -0.5018471
vn -0.49526572 -0.7858311 -0.37037992
vn -0.800419 0.5059948 -0.32140124
vn 0.9385191 0.19004065 -0.28821248
vn 0.86667305 -0.32903048 -0.374989
vn 0.72136384 -0.11140832 -0.6835367
vn 0.8866745 -0.38761657 -0.25211433
vn 0.970859 0.11148541 -0.21214123
vn 0.28251907 -0.93588126 -0.21049735
vn 0.2731764 -0.8840759 -0.37918913
vn -0.122781366 -0.9403251 -0.3173539
vn -0.092606254 -0.9816325 -0.16679852
vn -0.47636646 -0.8289087 -0.29323265
vn -0.43343455 -0.8903399 -0.13938913
vn -0.49526572 -0.7858311 -0.37037992
vn -0.14476556 -0.8553139 -0.49747473
vn 0.27658415 -0.8120199 -0.51393086
vn -0.05625688 -0.99771154 0.037507527
vn -0.42729762 -0.89760166 0.10829637
vn 0.0001561942 -0.8895683 0.45680213
vn 0.40038347 -0.8401001 0.36595747
vn 0.36133042 -0.9323347 0.013871222
vn -0.36393794 -0.8289627 0.4247
vn 0.9323353 -0.35953966 -0.038498595
vn 0.9907816 0.13152012 -0.03247
vn 0.80142725 -0.20362906 0.56236064
vn -0.43343455 -0.8903399 -0.13938913
vn -0.47636646 -0.8289087 -0.29323265
vn -0.9379138 -0.2975842 -0.1782174
vn -0.93792814 -0.34296152 -0.051653937
vn -0.9518467 0.30117038 -0.057307996
vn -0.97228754 0.23260053 0.023533901
vn -0.85762864 -0.11235061 -0.5018471
vn -0.49526572 -0.7858311 -0.37037992
vn -0.94003487 0.26584393 0.21368554
vn -0.93328685 -0.30492815 0.18972217
vn -0.6255146 -0.17759266 0.7597317
vn -0.42729762 -0.89760166 0.10829637
vn -0.36393794 -0.8289627 0.4247
g Fish_Plate_Cooked_0
f 3/3/3 2/2/2 1/1/1
f 4/4/4 3/3/3 1/1/1
f 5/5/5 3/3/3 4/4/4
f 6/6/6 5/5/5 4/4/4
f 5/5/5 7/7/7 3/3/3
f 7/7/7 8/8/8 3/3/3
f 3/3/3 8/8/8 2/2/2
f 8/8/8 9/9/9 2/2/2
f 4/4/4 10/10/10 6/6/6
f 10/10/10 11/11/11 6/6/6
f 11/11/11 10/10/10 12/12/12
f 13/13/13 11/11/11 12/12/12
f 13/13/13 12/12/12 14/14/14
f 14/14/14 12/12/12 15/15/15
f 14/14/14 15/15/15 16/16/16
f 17/17/17 14/14/14 16/16/16
f 17/17/17 16/16/16 18/18/18
f 19/19/19 17/17/17 18/18/18
f 20/20/20 17/17/17 19/19/19
f 21/21/21 20/20/20 19/19/19
f 22/22/22 14/14/14 17/17/17
f 20/20/20 22/22/22 17/17/17
f 22/22/22 13/13/13 14/14/14
f 12/12/12 23/23/23 15/15/15
f 12/12/12 10/10/10 23/23/23
f 10/10/10 24/24/24 23/23/23
f 19/19/19 18/18/18 25/25/25
f 26/26/26 19/19/19 25/25/25
f 21/21/21 19/19/19 26/26/26
f 26/26/26 25/25/25 27/27/27
f 28/28/28 26/26/26 27/27/27
f 28/28/28 27/27/27 29/29/29
f 30/30/30 28/28/28 29/29/29
f 31/31/31 28/28/28 30/30/30
f 32/32/32 31/31/31 30/30/30
f 33/33/33 26/26/26 28/28/28
f 31/31/31 33/33/33 28/28/28
f 33/33/33 21/21/21 26/26/26
f 20/20/20 21/21/21 33/33/33
f 25/25/25 18/18/18 34/34/34
f 34/34/34 35/35/35 25/25/25
f 35/35/35 36/36/36 25/25/25
f 37/37/37 35/35/35 34/34/34
f 38/38/38 37/37/37 34/34/34
f 37/37/37 39/39/39 35/35/35
f 39/39/39 40/40/40 35/35/35
f 35/35/35 40/40/40 36/36/36
f 41/41/41 40/40/40 39/39/39
f 42/42/42 41/41/41 39/39/39
f 43/43/43 41/41/41 42/42/42
f 44/44/44 43/43/43 42/42/42
f 43/43/43 45/45/45 41/41/41
f 45/45/45 46/46/46 41/41/41
f 41/41/41 46/46/46 40/40/40
f 46/46/46 47/47/47 40/40/40
f 40/40/40 47/47/47 36/36/36
f 44/44/44 42/42/42 48/48/48
f 49/49/49 44/44/44 48/48/48
f 49/49/49 48/48/48 50/50/50
f 50/50/50 48/48/48 51/51/51
f 48/48/48 52/52/52 51/51/51
f 42/42/42 39/39/39 52/52/52
f 48/48/48 42/42/42 52/52/52
f 53/53/53 49/49/49 50/50/50
f 54/54/54 52/52/52 39/39/39
f 37/37/37 54/54/54 39/39/39
f 55/55/55 54/54/54 37/37/37
f 38/38/38 55/55/55 37/37/37
f 55/55/55 1/1/1 54/54/54
f 1/1/1 56/56/56 54/54/54
f 56/56/56 51/51/51 52/52/52
f 54/54/54 56/56/56 52/52/52
f 38/38/38 15/15/15 55/55/55
f 16/16/16 15/15/15 38/38/38
f 34/34/34 16/16/16 38/38/38
f 18/18/18 16/16/16 34/34/34
f 15/15/15 23/23/23 55/55/55
f 55/55/55 23/23/23 1/1/1
f 23/23/23 24/24/24 1/1/1
f 1/1/1 24/24/24 4/4/4
f 24/24/24 10/10/10 4/4/4
f 59/59/59 58/58/58 57/57/57
f 60/60/60 59/59/59 57/57/57
f 61/61/61 59/59/59 60/60/60
f 62/62/62 61/61/61 60/60/60
f 61/61/61 33/33/33 59/59/59
f 33/33/33 63/63/63 59/59/59
f 59/59/59 63/63/63 58/58/58
f 63/63/63 64/64/64 58/58/58
f 62/62/62 60/60/60 65/65/65
f 60/60/60 66/66/66 65/65/65
f 60/60/60 57/57/57 66/66/66
f 65/65/65 66/66/66 6/6/6
f 66/66/66 67/67/67 6/6/6
f 57/57/57 68/68/68 66/66/66
f 66/66/66 68/68/68 67/67/67
f 68/68/68 69/69/69 67/67/67
f 61/61/61 20/20/20 33/33/33
f 22/22/22 20/20/20 61/61/61
f 62/62/62 22/22/22 61/61/61
f 13/13/13 22/22/22 62/62/62
f 65/65/65 13/13/13 62/62/62
f 11/11/11 13/13/13 65/65/65
f 6/6/6 11/11/11 65/65/65
